<svg width="200" height="200" viewBox="0 0 200 200" xmlns="http://www.w3.org/2000/svg">
  <!-- Background circle -->
  <circle cx="100" cy="100" r="95" fill="#2563eb" opacity="0.1"/>

  <!-- Mobile device outline -->
  <rect x="60" y="50" width="80" height="120" rx="8" fill="none" stroke="#2563eb" stroke-width="4"/>
  <rect x="65" y="60" width="70" height="95" fill="#2563eb" opacity="0.2"/>
  <circle cx="100" cy="162" r="4" fill="#2563eb"/>

  <!-- Code brackets -->
  <path d="M 75 85 L 65 95 L 75 105" fill="none" stroke="#1e40af" stroke-width="3" stroke-linecap="round"/>
  <path d="M 125 85 L 135 95 L 125 105" fill="none" stroke="#1e40af" stroke-width="3" stroke-linecap="round"/>

  <!-- Coffee cup (Java reference) -->
  <path d="M 145 125 Q 155 125 155 135 Q 155 145 145 145" fill="none" stroke="#2563eb" stroke-width="2.5"/>
  <path d="M 120 130 L 120 145 Q 120 150 125 150 L 140 150 Q 145 150 145 145 L 145 130" fill="none" stroke="#2563eb" stroke-width="2.5" stroke-linecap="round"/>
  <line x1="125" y1="130" x2="140" y2="130" stroke="#2563eb" stroke-width="2.5" stroke-linecap="round"/>

  <!-- Steam lines -->
  <path d="M 127 122 Q 127 118 130 118" fill="none" stroke="#2563eb" stroke-width="1.5" stroke-linecap="round" opacity="0.6"/>
  <path d="M 133 120 Q 133 115 136 115" fill="none" stroke="#2563eb" stroke-width="1.5" stroke-linecap="round" opacity="0.6"/>
</svg>
